<?xml version="1.0" encoding="UTF-8"?>
<svg id="Layer_2" xmlns="http://www.w3.org/2000/svg" xmlns:xlink="http://www.w3.org/1999/xlink" viewBox="0 0 473.42 72">
    <defs>
        <style>
            .cls-1{fill:url(#linear-gradient-2);}.cls-2{fill:url(#linear-gradient-6);}.cls-3{fill:url(#linear-gradient-11);}.cls-4{fill:#6cb4e3;}.cls-5{fill:url(#linear-gradient-10);}.cls-6{fill:#50a2c8;}.cls-7{fill:url(#linear-gradient-5);}.cls-8{fill:#fede43;}.cls-9{fill:none;}.cls-10{fill:url(#linear-gradient-7);}.cls-11{fill:url(#linear-gradient-9);}.cls-12{fill:url(#linear-gradient-3);}.cls-13{fill:url(#linear-gradient);}.cls-14{fill:url(#linear-gradient-4);}.cls-15{fill:url(#linear-gradient-8);}
        </style>
        <linearGradient id="linear-gradient" x1="20.3" y1="77.7" x2="20.3" y2="52.41" gradientUnits="userSpaceOnUse">
            <stop offset="0" stop-color="#007985"/>
            <stop offset="1" stop-color="#6cb4e3"/>
        </linearGradient>
        <linearGradient id="linear-gradient-2" x1="69.4" y1="77.7" x2="69.4" y2="52.41" xlink:href="#linear-gradient"/>
        <linearGradient id="linear-gradient-3" x1="124.5" y1="77.7" x2="124.5" y2="52.41"
                        xlink:href="#linear-gradient"/>
        <linearGradient id="linear-gradient-4" x1="179.7" y1="77.7" x2="179.7" y2="52.41"
                        xlink:href="#linear-gradient"/>
        <linearGradient id="linear-gradient-5" x1="221.9" y1="77.7" x2="221.9" y2="52.41"
                        xlink:href="#linear-gradient"/>
        <linearGradient id="linear-gradient-6" x1="289.92" y1="77.7" x2="289.92" y2="52.41"
                        xlink:href="#linear-gradient"/>
        <linearGradient id="linear-gradient-7" x1="330.59" y1="77.7" x2="330.59" y2="52.41"
                        xlink:href="#linear-gradient"/>
        <linearGradient id="linear-gradient-8" x1="358.39" y1="77.7" x2="358.39" y2="52.41"
                        xlink:href="#linear-gradient"/>
        <linearGradient id="linear-gradient-9" x1="391.73" y1="77.7" x2="391.73" y2="52.41"
                        xlink:href="#linear-gradient"/>
        <linearGradient id="linear-gradient-10" x1="456.77" y1="77.7" x2="456.77" y2="52.41"
                        xlink:href="#linear-gradient"/>
        <linearGradient id="linear-gradient-11" x1="424.49" y1="77.7" x2="424.49" y2="52.41"
                        xlink:href="#linear-gradient"/>
    </defs>
    <g id="Layer_1-2">
        <g>
            <g>
                <path class="cls-9" d="M368.7,55.16c2.64-.93,5.23-1.99,7.76-3.18l-7.76-13.88v17.06Z"/>
                <path class="cls-8"
                      d="M2.5,48.65c4.66,1.44,5.17,10.23,10,9.6,3.48-.45,5.45-6.11,8.75-4.93,1.68,.6,2.22,2.67,3.29,4.1,1.57,2.1,4.72,2.82,7.05,1.62,2.28-1.18,3.51-4.07,2.8-6.53h-13.69V3c0-.8-.7-1.5-1.5-1.5H1.5c-.8,0-1.5,.7-1.5,1.5V48.69c.82-.25,1.68-.29,2.5-.04Z"/>
                <path class="cls-8"
                      d="M79.01,57.55c1.43,1.54,3.72,1.83,5.81,2.02,2.04,.19,4.35,.29,5.85-1.1,.8-.74,1.22-1.78,1.8-2.7,.47-.74,1.06-1.39,1.72-1.94v-.03c0-.7-.7-1.3-1.5-1.3h-17.82c.34,.1,.68,.25,1,.48,1.52,1.07,1.86,3.2,3.13,4.56Z"/>
                <path class="cls-8"
                      d="M53.53,53.5c.29-1.85-1.04-3.5-1.78-5.22-.8-1.86-.87-4.12,.2-5.84,1.07-1.72,3.41-2.66,5.25-1.81,3.12,1.45,2.6,5.98,1.61,9.27-.99,3.29-1.4,7.87,1.78,9.19,2.74,1.14,5.53-1.35,7.58-3.51,1.27-1.33,2.99-2.67,4.69-3.09h-7.46v-8.5h19.4c.9,0,1.6-.7,1.7-1.3l1.4-14c.1-.6-.4-1.3-1.3-1.3h-21.2v-7.9h26.1c.9,0,1.6-.6,1.6-1.5V2.9c0-.7-.7-1.4-1.6-1.4H46c-.9,0-1.4,.5-1.4,1.4V55.07c.99,.59,2.01,1.1,3.12,1.37,2.37,.57,5.43-.53,5.81-2.94Z"/>
                <path class="cls-8"
                      d="M119.45,57.79c3.18-3.5-1.02-9.4,.88-13.73,.45-1.03,1.36-1.96,2.48-2.03,1.66-.11,2.89,1.68,3.02,3.34,.13,1.66-.45,3.29-.56,4.96-.23,3.48,1.78,7.01,4.89,8.58,1.42,.72,3.04,.99,4.63,.87V19.5h14.9c.7,0,1.5-.6,1.6-1.4l1.5-15.2c.1-.7-.5-1.4-1.4-1.4h-53.8c-.7,0-1.4,.7-1.4,1.5v15.1c0,.8,.7,1.4,1.4,1.4h16.6V59.05c1.95,.43,3.94,.18,5.25-1.26Z"/>
                <path class="cls-8"
                      d="M173.82,58.54c.68-2.36-.58-4.78-1.15-7.16-.57-2.39,.15-5.64,2.58-5.99,2.18-.31,3.81,2.07,4.21,4.24,.4,2.17,.19,4.54,1.33,6.43,1.35,2.23,4.17,3.07,6.77,3.32,.81,.08,1.63,.1,2.44,.09V3c0-.8-.6-1.5-1.5-1.5h-17.7c-.7,0-1.4,.7-1.4,1.5V62.33c2.01-.51,3.86-1.82,4.42-3.79Z"/>
                <path class="cls-8"
                      d="M224.47,38.57c2.75,1.68,1.97,5.86,.62,8.78-1.36,2.93-2.88,6.62-.81,9.09,1.87,2.23,5.55,1.74,7.92,.06V19.5h14.9c.7,0,1.5-.6,1.6-1.4l1.5-15.2c.1-.7-.5-1.4-1.4-1.4h-53.8c-.7,0-1.4,.7-1.4,1.5v15.1c0,.8,.7,1.4,1.4,1.4h16.6v27.87c1.49-1.79,2.95-3.58,4.55-5.39,2.17-2.46,5.54-5.13,8.33-3.42Z"/>
                <path class="cls-8"
                      d="M292.69,54.97c2.3,1,4.05,3.18,6.51,3.72,3.44,.76,7.05-2.79,6.35-6.24-.47-2.29-2.35-4-3.32-6.12-.97-2.12-.27-5.46,2.06-5.55,1.59-.07,2.8,1.52,3.11,3.09,.31,1.56,.03,3.18,.21,4.77,.37,3.22,2.82,6.1,5.94,6.97,.14,.04,.28,.05,.42,.08,.48-1.84,.73-3.81,.73-5.88,0-22-28.3-21.6-28.3-27.5,0-2.2,2-3.6,5.1-3.6,3.5,.3,9.2,2.4,14.1,5.2,.8,.5,1.5,.2,1.8-.8l6.3-14.1c.3-.5,0-1.3-.8-1.8-6.3-4.3-15.3-7.2-22.4-7.2-15.2,0-25.3,8.9-25.3,22.3,0,21.8,28.1,21.5,28.1,27.4,0,2.3-2.1,3.8-5.3,3.8-3.8-.3-9.3-2.2-13.9-4.8-.8-.5-1.5-.2-1.8,.8l-2.72,6.08s.04,.05,.06,.07c5.83,5.51,15.69-3.88,23.05-.69Z"/>
                <path class="cls-8"
                      d="M322.25,52.73c1.65-2.13,2.35-5.15,4.71-6.45,1.93-1.06,4.62-.41,5.86,1.41s.85,4.56-.84,5.97c1.61,2.98,5.56,3.65,8.92,2.74V3c0-.8-.6-1.5-1.5-1.5h-17.7c-.7,0-1.4,.7-1.4,1.5V54.49c.74-.48,1.41-1.07,1.95-1.77Z"/>
                <path class="cls-8"
                      d="M363.26,48.66c-.47,2.66-4.87,3.9-4.19,6.51,.52,2,3.36,1.95,5.35,1.38,1.44-.42,2.87-.89,4.28-1.39v-17.06l7.76,13.88c3.55-1.68,6.98-3.6,10.24-5.78,1.91-1.27,3.89-2.67,6.18-2.8,2.29-.13,4.84,1.67,4.54,3.95-.47,3.51-6.18,3.54-7.73,6.72-1.35,2.75,1.73,6.07,4.79,5.93,3.06-.13,5.55-2.54,7.19-5.13,1-1.58,1.88-3.38,3.51-4.31,.59-.33,1.19-.52,1.82-.6V3c0-.8-.6-1.5-1.5-1.5h-17.7c-.7,0-1.4,.7-1.4,1.5v30.9l-17.3-31.1c-.4-.8-1.4-1.3-2.3-1.3h-17.3c-.8,0-1.4,.7-1.4,1.5V52.08c1.34-1.06,2.67-2.12,4.11-3.01,3.36-2.07,8.06-3,11.05-.42Z"/>
                <path class="cls-8"
                      d="M424.41,52.59c1.78-2.58,.23-6.94,2.83-8.7,2.66-1.81,5.89,1.48,7.08,4.46,.15,.37,.31,.76,.47,1.15v-5.21l5.32,10.73c.08,0,.16,.01,.24,.01,4.74-.15,4.91-8.23,9.33-9.95,3.28-1.27,6.58,1.73,8.61,4.6,1.77,2.51,3.83,5.43,6.66,6.09l-13.06-21.39,19.8-31.7c.4-.7,.1-1.2-.7-1.2h-21.9c-.9,0-1.9,.5-2.3,1.2l-12,22.7V3c0-.8-.6-1.5-1.5-1.5h-17.7c-.7,0-1.4,.7-1.4,1.5V52.26c.24,.14,.49,.27,.73,.41,3.03,1.72,7.51,2.8,9.49-.07Z"/>
                <path class="cls-6" d="M72.86,52.5h2.02c-.65-.19-1.34-.17-2.02,0Z"/>
                <path class="cls-13"
                      d="M1.5,70.5H37.6c.8,0,1.5-.7,1.6-1.4l1.4-15.2c0-.8-.6-1.4-1.3-1.4h-4.91c.7,2.47-.52,5.35-2.8,6.53-2.33,1.2-5.48,.48-7.05-1.62-1.07-1.43-1.61-3.49-3.29-4.1-3.3-1.18-5.27,4.48-8.75,4.93-4.83,.63-5.34-8.16-10-9.6-.82-.25-1.68-.21-2.5,.04v20.42c0,.7,.7,1.4,1.5,1.4Z"/>
                <path class="cls-1"
                      d="M46.2,70.5h46.5c.8,0,1.5-.7,1.5-1.4v-15.28c-.67,.56-1.26,1.2-1.72,1.94-.58,.92-1.01,1.96-1.8,2.7-1.5,1.39-3.81,1.29-5.85,1.1-2.09-.19-4.38-.48-5.81-2.02-1.26-1.36-1.61-3.49-3.13-4.56-.32-.23-.66-.38-1-.48h-2.02c-1.7,.42-3.43,1.76-4.69,3.09-2.05,2.16-4.83,4.65-7.58,3.51-3.17-1.32-2.77-5.9-1.78-9.19,.99-3.29,1.51-7.82-1.61-9.27-1.84-.85-4.18,.09-5.25,1.81-1.07,1.72-1,3.98-.2,5.84,.74,1.72,2.07,3.37,1.78,5.22-.38,2.41-3.44,3.52-5.81,2.94-1.12-.27-2.14-.78-3.12-1.37v13.93c.2,.7,.9,1.5,1.6,1.5Z"/>
                <path class="cls-12"
                      d="M115.7,70.5h17.7c.8,0,1.4-.7,1.4-1.4v-9.33c-1.59,.11-3.2-.16-4.63-.87-3.11-1.57-5.12-5.1-4.89-8.58,.11-1.66,.69-3.3,.56-4.96-.13-1.66-1.36-3.45-3.02-3.34-1.12,.08-2.03,1-2.48,2.03-1.9,4.33,2.3,10.24-.88,13.73-1.31,1.44-3.3,1.69-5.25,1.26v10.05c0,.7,.7,1.4,1.5,1.4Z"/>
                <path class="cls-14"
                      d="M170.8,70.5h17.7c.9,0,1.5-.7,1.5-1.4v-9.63c-.81,0-1.63-.02-2.44-.09-2.6-.24-5.42-1.08-6.77-3.32-1.14-1.89-.93-4.26-1.33-6.43-.4-2.17-2.02-4.55-4.21-4.24-2.43,.34-3.15,3.6-2.58,5.99,.57,2.39,1.83,4.81,1.15,7.16-.57,1.96-2.41,3.28-4.42,3.79v6.77c0,.7,.7,1.4,1.4,1.4Z"/>
                <path class="cls-7"
                      d="M213.1,70.5h17.7c.8,0,1.4-.7,1.4-1.4v-12.6c-2.37,1.68-6.05,2.17-7.92-.06-2.07-2.47-.55-6.16,.81-9.09,1.36-2.93,2.13-7.1-.62-8.78-2.79-1.71-6.16,.96-8.33,3.42-1.59,1.8-3.06,3.6-4.55,5.39v21.73c0,.7,.7,1.4,1.5,1.4Z"/>
                <path class="cls-2"
                      d="M266.79,65.4c5,4,13.8,6.6,22.2,6.6,13,0,22.37-6.34,24.97-16.32-.14-.03-.28-.04-.42-.08-3.12-.87-5.57-3.75-5.94-6.97-.18-1.58,.1-3.2-.21-4.77-.31-1.56-1.52-3.15-3.11-3.09-2.33,.1-3.03,3.43-2.06,5.55,.97,2.12,2.86,3.84,3.32,6.12,.7,3.45-2.91,7-6.35,6.24-2.45-.55-4.2-2.72-6.51-3.72-7.35-3.2-17.22,6.2-23.05,.69-.02-.02-.04-.05-.06-.07l-3.58,8.02c-.3,.5,0,1.2,.8,1.8Z"/>
                <path class="cls-10"
                      d="M321.69,70.5h17.7c.9,0,1.5-.7,1.5-1.4v-12.72c-3.36,.91-7.31,.25-8.92-2.74,1.7-1.41,2.08-4.15,.84-5.97s-3.93-2.47-5.86-1.41c-2.36,1.3-3.06,4.32-4.71,6.45-.54,.7-1.21,1.29-1.95,1.77v14.61c0,.7,.7,1.4,1.4,1.4Z"/>
                <path class="cls-15"
                      d="M349.49,70.5h17.7c.9,0,1.5-.7,1.5-1.4v-13.94c-1.42,.5-2.84,.97-4.28,1.39-1.98,.57-4.83,.62-5.35-1.38-.68-2.61,3.73-3.85,4.19-6.51-2.98-2.59-7.68-1.65-11.05,.42-1.44,.89-2.78,1.95-4.11,3.01v17.02c0,.7,.6,1.4,1.4,1.4Z"/>
                <path class="cls-11"
                      d="M401.67,54.87c-1.63,2.59-4.13,4.99-7.19,5.13-3.06,.13-6.14-3.18-4.79-5.93,1.55-3.18,7.26-3.21,7.73-6.72,.31-2.27-2.25-4.08-4.54-3.95-2.29,.13-4.27,1.53-6.18,2.8-3.27,2.17-6.69,4.1-10.24,5.78l9.64,17.23c.5,.8,1.4,1.3,2.1,1.3h17.3c.9,0,1.5-.7,1.5-1.4v-19.14c-.62,.08-1.23,.27-1.82,.6-1.63,.93-2.51,2.72-3.51,4.31Z"/>
                <path class="cls-5"
                      d="M458.3,49.7c-2.03-2.88-5.33-5.88-8.61-4.6-4.42,1.72-4.59,9.8-9.33,9.95-.08,0-.16,0-.24-.01l7.08,14.27c.4,.7,1.4,1.2,2.1,1.2h23.2c.8,0,1.2-.5,.7-1.2l-8.24-13.51c-2.83-.67-4.89-3.59-6.66-6.09Z"/>
                <path class="cls-3"
                      d="M415.59,70.5h17.7c.9,0,1.5-.7,1.5-1.4v-19.59c-.17-.39-.32-.78-.47-1.15-1.2-2.99-4.42-6.27-7.08-4.46-2.59,1.76-1.05,6.12-2.83,8.7-1.98,2.87-6.46,1.79-9.49,.07-.24-.13-.48-.27-.73-.41v16.85c0,.7,.7,1.4,1.4,1.4Z"/>
            </g>
            <path class="cls-4"
                  d="M8.41,45.82s-.03,.05-.05,.07c0,.01-.01,.02-.02,.03-.06,.13-.12,.26-.17,.4l.39-.67-.05,.04-.27,.34c-.12,.2-.19,.41-.2,.63-.04,.15-.04,.3,0,.45,.01,.23,.08,.44,.2,.63,.11,.15,.21,.32,.36,.44,.06,.05,.28,.22,.35,.27,0,0,0,0,.01,.01,0,0,.02,.01,.03,.02,.01,0,.02,.01,.03,.02,.11,.05,.3,.13,.42,.18,0,0,.01,0,.02,0,.02,0,.05,.01,.07,.02,.13,.02,.33,.05,.46,.06,0,0,.01,0,.02,0,.01,0,.03,0,.04,0,.46-.02,.59-.08,1-.26,.17-.08,.33-.23,.47-.34,.02-.02,.04-.03,.06-.05,0-.01,.02-.02,.03-.03,.1-.12,.2-.24,.29-.37,.02-.02,.03-.04,.04-.07,.08-.15,.14-.32,.2-.48,0-.02,.02-.05,.02-.07,.04-.17,.06-.35,.07-.53,0-.03,0-.06,0-.09-.02-.18-.03-.36-.08-.53-.02-.08-.07-.18-.1-.24s-.06-.17-.1-.24c0-.01-.01-.02-.02-.03,0,0,0-.01-.01-.02-.09-.12-.19-.25-.28-.36-.16-.17-.34-.29-.55-.36-.2-.11-.43-.16-.66-.15-.24,0-.46,.04-.66,.15-.21,.07-.4,.19-.55,.36l-.27,.35c-.16,.27-.23,.56-.23,.87l.06,.46c.08,.29,.23,.54,.44,.76,0,0,.01,.02,.02,.02l-.27-.35s.04,.06,.05,.09l-.17-.41s.02,.06,.03,.1l-.06-.46s0,.09,0,.13l.06-.46c0,.05-.02,.1-.04,.15l.17-.41s-.05,.09-.08,.13l.27-.35s-.06,.07-.1,.1l.35-.27s-.07,.05-.1,.06l.41-.17s-.07,.02-.11,.03l.45-.06s-.07,0-.1,0l.45,.06s-.06-.01-.09-.02l.41,.17s-.06-.03-.09-.05l.34,.27s-.06-.05-.08-.08l.27,.34h0c-.09-.12-.18-.24-.27-.35-.15-.17-.34-.28-.55-.35-.13-.08-.28-.12-.43-.12-.23-.05-.45-.04-.68,.03h-.03c.39,.06,.79,.11,1.18,.17,0,0,0,0-.01,0l.31,.24s-.06-.05-.09-.09l.22,.29s-.01-.02-.02-.03c-.13-.21-.29-.38-.51-.51-.22-.13-.46-.19-.71-.19-.25,0-.49,.06-.71,.19-.21,.13-.38,.29-.51,.51h0Z"/>
            <path class="cls-4"
                  d="M7.66,37l-.1-.08-.05-.04s-.02-.01-.02-.02c-.06-.05-.12-.1-.18-.14-.17-.16-.37-.26-.6-.31h-.01c-.16-.02-.31-.05-.47-.07l-.47,.06h-.01s-.03,.02-.05,.02l-.1,.04c-.21,.05-.39,.14-.54,.28-.17,.11-.31,.26-.41,.44l-.16,.38c-.08,.28-.08,.56,0,.84l.03,.09v.04c.04,.08,.07,.13,.11,.22,.04,.15,.12,.28,.23,.39,.04,.07,.09,.14,.15,.19l.36,.27,.42,.18s.02,0,.03,0l.07,.02,.14,.03,.45,.06c.23,0,.45-.04,.66-.15,.14-.04,.27-.11,.38-.22,.19-.12,.33-.28,.44-.48l.17-.41,.06-.45c0-.23-.04-.45-.15-.66-.07-.21-.19-.39-.35-.55h0Z"/>
            <path class="cls-4" d="M62.1,39.41c2.36,0,2.37-3.67,0-3.67s-2.37,3.67,0,3.67h0Z"/>
            <path class="cls-4"
                  d="M119.44,37.27l-.04,.19-.02,.09c-.03,.12-.05,.24-.05,.37,0,.12,.01,.23,.05,.33l.12,.29c.1,.19,.27,.33,.45,.44,.19,.11,.39,.17,.61,.17,.22,0,.42-.06,.61-.17h0c.14-.08,.26-.19,.34-.32,.11-.12,.18-.26,.22-.42,.04-.11,.05-.22,.05-.33,0-.13-.02-.24-.05-.36l-.02-.1-.04-.19-.12-.28c-.07-.13-.17-.24-.3-.32-.07-.07-.16-.12-.25-.15-.14-.07-.29-.11-.44-.1l-.31,.04-.28,.12c-.13,.07-.24,.17-.32,.3-.1,.11-.17,.24-.21,.39h0Z"/>
            <path class="cls-4" d="M128.3,40.87c1.26,0,1.26-1.95,0-1.95s-1.26,1.95,0,1.95h0Z"/>
            <path class="cls-4"
                  d="M181.08,45.31l-.07,.24c-.07,.27-.07,.55,0,.82,.07,.26,.21,.49,.4,.68l.31,.24c.24,.14,.5,.21,.78,.21,.21,0,.41-.04,.59-.13,.19-.06,.36-.17,.5-.32,.19-.19,.32-.42,.4-.68,.07-.27,.07-.55,0-.82l-.07-.24-.15-.35c-.09-.17-.22-.31-.38-.41-.09-.09-.2-.15-.32-.19-.17-.09-.36-.13-.56-.13l-.39,.05-.35,.15c-.17,.09-.31,.22-.41,.38-.13,.14-.22,.31-.26,.5h0Z"/>
            <path class="cls-4" d="M221.59,35.2c1.43,0,1.44-2.23,0-2.23s-1.44,2.23,0,2.23h0Z"/>
            <path class="cls-4"
                  d="M228.81,52.64l.31,.07c.32,.08,.63,.08,.95,0,.3-.08,.56-.24,.78-.46,.22-.22,.37-.48,.46-.78,.08-.32,.08-.63,0-.95l-.07-.31c-.09-.33-.26-.62-.51-.87-.25-.24-.54-.41-.87-.51-.35-.09-.7-.09-1.05,0-.33,.09-.62,.26-.87,.51-.24,.25-.41,.54-.51,.87-.09,.35-.09,.7,0,1.05,.09,.33,.26,.62,.51,.87,.25,.24,.54,.41,.87,.51h0Z"/>
            <path class="cls-4" d="M298.23,54.39c3.22,0,3.22-5,0-5s-3.22,5,0,5h0Z"/>
            <path class="cls-4" d="M334.23,42.34c.65,0,.65-1.02,0-1.02s-.65,1.02,0,1.02h0Z"/>
            <path class="cls-4" d="M358.23,46.02c3.9,0,3.9-6.05,0-6.05s-3.9,6.05,0,6.05h0Z"/>
            <path class="cls-4" d="M398.1,43.64c1.83,0,1.84-2.85,0-2.85s-1.84,2.85,0,2.85h0Z"/>
            <path class="cls-4"
                  d="M420.1,52.11c.1-.03,.2-.05,.3-.08l.61-.26c.3-.16,.54-.38,.72-.66,.16-.16,.27-.35,.33-.56,.16-.3,.23-.63,.22-.99l-.09-.68-.26-.61c-.16-.3-.38-.54-.66-.72-.25-.23-.54-.38-.87-.46-.1-.03-.2-.05-.3-.08-.47-.13-.93-.13-1.4,0-.45,.13-.83,.35-1.16,.68l-.41,.53c-.24,.41-.36,.85-.36,1.33-.01,.36,.06,.7,.23,1.02,.11,.33,.29,.61,.55,.85,.33,.33,.72,.55,1.16,.68,.47,.13,.93,.13,1.4,0h0Z"/>
            <path class="cls-4" d="M441.85,48.59c3.22,0,3.22-5,0-5s-3.22,5,0,5h0Z"/>
        </g>
    </g>
</svg>
